<svg version="1.1" id="Layer_1" xmlns="http://www.w3.org/2000/svg" xmlns:xlink="http://www.w3.org/1999/xlink" x="0px" y="0px"
	 width="100%" viewBox="0 0 293 172" enable-background="new 0 0 293 172" xml:space="preserve">
<path fill="#FDFDFD" opacity="1.000000" stroke="none" 
	d="
M1.000000,81.000000 
	C1.000000,54.359104 1.000000,27.718210 1.000000,1.038657 
	C98.546494,1.038657 196.093018,1.038657 294.000000,1.038657 
	C294.000000,27.353132 294.000000,53.707909 293.533386,80.531342 
	C287.002411,80.652840 280.938080,80.305687 274.875153,79.595459 
	C274.262390,77.169685 273.648224,75.106987 273.288513,72.895950 
	C273.005432,72.239891 272.467865,71.732185 271.852722,70.900909 
	C271.149384,70.406120 270.523621,70.234894 269.837708,69.664581 
	C268.222717,68.515854 266.672699,67.125313 265.112335,67.113670 
	C244.992889,66.963486 224.871902,66.990677 204.751541,67.047470 
	C203.336060,67.051460 201.922241,67.641022 200.143768,67.904289 
	C197.862961,67.559555 195.946014,67.268829 193.557632,66.986526 
	C160.381302,66.989487 127.676414,66.984032 94.559402,66.961006 
	C92.772591,66.956863 91.397903,66.970284 89.552399,66.991638 
	C69.937157,66.995262 50.790474,66.845398 31.650721,67.142075 
	C28.746481,67.187080 25.874392,69.306297 22.700602,70.445282 
	C21.595671,71.317680 20.777569,72.210915 19.956100,73.524231 
	C19.979101,75.632622 20.005470,77.320946 20.014160,79.339737 
	C20.006065,80.111237 20.015648,80.552269 19.555382,80.995445 
	C13.057021,80.998390 7.028511,80.999191 1.000000,81.000000 
z"/>
<path fill="#F8F8F8" opacity="1.000000" stroke="none" 
	d="
M274.873749,79.958534 
	C280.938080,80.305687 287.002411,80.652840 293.533386,81.000000 
	C294.000000,98.687561 294.000000,116.375122 293.531342,134.531342 
	C195.708450,135.000000 98.354225,135.000000 1.000000,135.000000 
	C1.000000,117.312439 1.000000,99.624878 1.000000,81.468658 
	C7.028511,80.999191 13.057021,80.998390 19.932825,81.001106 
	C21.536051,80.990517 22.291985,80.976410 23.273746,81.054802 
	C23.775711,81.341415 23.970186,81.597549 23.973761,82.155151 
	C22.897896,83.931664 21.931271,85.468704 20.609756,87.071808 
	C19.895494,88.247452 19.536119,89.357033 19.209869,90.364342 
	C23.454157,90.608047 26.861221,91.028694 30.257801,90.956436 
	C40.368729,90.741325 50.475513,90.053429 60.583954,90.052788 
	C88.598839,90.051010 116.615349,89.377960 144.607742,91.816986 
	C153.950455,92.631027 163.479202,91.007645 172.919586,91.063110 
	C195.922577,91.198250 218.922836,91.791862 241.925842,91.932106 
	C250.866959,91.986618 259.824341,91.486053 268.747437,90.856987 
	C270.883911,90.706360 272.912964,89.031769 275.155640,87.955994 
	C275.383636,87.743530 275.528290,87.576492 275.497437,87.532471 
	C275.357147,87.332275 275.167450,87.166718 274.996521,86.995552 
	C274.997559,87.002411 275.011505,87.004509 274.851379,86.723625 
	C273.728882,85.766808 272.766541,85.090874 271.661469,84.314697 
	C272.617554,84.017807 273.345673,83.791718 274.144470,83.543663 
	C273.056152,83.077705 272.061981,82.652061 271.391266,82.146469 
	C272.460541,81.379303 273.206421,80.692078 274.182861,79.997749 
	C274.413483,79.990646 274.873749,79.958534 274.873749,79.958534 
z"/>
<path fill="#F5F5F5" opacity="1.000000" stroke="none" 
	d="
M1.000000,135.468658 
	C98.354225,135.000000 195.708450,135.000000 293.531342,135.000000 
	C294.000000,147.651642 294.000000,160.303268 294.000000,172.950806 
	C196.333313,172.946686 98.666649,172.946686 1.000000,172.946686 
	C1.000000,160.574677 1.000000,148.255997 1.000000,135.468658 
z"/>
<path fill="#E3E4E5" opacity="1.000000" stroke="none" 
	d="
M194.029068,66.978104 
	C195.946014,67.268829 197.862961,67.559555 200.271606,68.158463 
	C200.810608,68.650322 200.857925,68.833992 200.614777,69.044983 
	C199.863983,69.811600 199.403656,70.550903 198.510941,71.435699 
	C194.378799,71.702583 190.679047,71.823982 186.695770,71.641846 
	C179.637680,71.474953 172.863144,71.611610 165.614578,71.756905 
	C135.420563,71.797081 105.700554,71.848297 75.980568,71.841858 
	C70.680351,71.840714 65.380188,71.600479 60.058571,71.210052 
	C59.995014,70.599983 59.952888,70.250488 60.234451,69.631142 
	C68.963005,69.246674 77.371117,69.224350 85.769608,68.928757 
	C87.208511,68.878113 88.606392,67.661629 90.023224,66.983711 
	C91.397903,66.970284 92.772591,66.956863 94.631088,67.368530 
	C96.278503,68.194084 97.441391,68.941887 98.605820,68.944298 
	C129.145462,69.007622 159.685379,69.017960 190.224762,68.907906 
	C191.495163,68.903328 192.761078,67.649788 194.029068,66.978104 
z"/>
<path fill="#C1C2C6" opacity="1.000000" stroke="none" 
	d="
M274.875153,79.595459 
	C274.873749,79.958534 274.413483,79.990646 273.717590,79.985474 
	C260.986603,80.018433 248.950943,80.009552 236.917053,80.150589 
	C235.302536,80.169518 233.696869,80.945251 231.714539,81.251472 
	C230.563965,81.100822 229.785934,81.069229 228.799362,80.714935 
	C227.049164,80.193939 225.507523,79.995644 224.023651,79.457207 
	C225.462769,78.099663 226.902771,77.151260 228.206497,76.042603 
	C229.214661,75.185272 230.052139,74.127235 231.432617,73.096283 
	C245.611191,73.037506 259.322632,73.040894 273.034058,73.044281 
	C273.648224,75.106987 274.262390,77.169685 274.875153,79.595459 
z"/>
<path fill="#C1C2C6" opacity="1.000000" stroke="none" 
	d="
M193.557632,66.986526 
	C192.761078,67.649788 191.495163,68.903328 190.224762,68.907906 
	C159.685379,69.017960 129.145462,69.007622 98.605820,68.944298 
	C97.441391,68.941887 96.278503,68.194084 95.043213,67.386101 
	C127.676414,66.984032 160.381302,66.989487 193.557632,66.986526 
z"/>
<path fill="#BBBCBE" opacity="1.000000" stroke="none" 
	d="
M89.552399,66.991638 
	C88.606392,67.661629 87.208511,68.878113 85.769608,68.928757 
	C77.371117,69.224350 68.963005,69.246674 59.782230,69.644058 
	C54.789345,69.643570 50.542412,68.918709 46.363899,69.202225 
	C42.253490,69.481125 38.212486,70.783043 33.690086,71.745956 
	C29.821903,71.392601 26.404669,70.929359 22.987431,70.466110 
	C25.874392,69.306297 28.746481,67.187080 31.650721,67.142075 
	C50.790474,66.845398 69.937157,66.995262 89.552399,66.991638 
z"/>
<path fill="#BBBCBE" opacity="1.000000" stroke="none" 
	d="
M200.905258,69.017670 
	C200.857925,68.833992 200.810608,68.650322 200.635468,68.212471 
	C201.922241,67.641022 203.336060,67.051460 204.751541,67.047470 
	C224.871902,66.990677 244.992889,66.963486 265.112335,67.113670 
	C266.672699,67.125313 268.222717,68.515854 269.552155,69.686157 
	C268.943939,70.110939 268.561096,70.115051 267.874695,69.804733 
	C263.444733,69.340515 259.316772,69.079720 255.193466,69.139954 
	C254.422150,69.151222 253.669617,70.448311 252.495300,71.191666 
	C250.423370,71.205681 248.764542,71.180046 247.014069,70.751831 
	C244.272980,69.912086 241.623520,69.474922 238.743271,69.130333 
	C238.219284,69.405113 238.007019,69.655853 237.646240,70.112000 
	C237.228241,70.550865 237.039642,70.852852 236.411865,71.199387 
	C233.027802,71.216919 230.082962,71.189903 227.039124,70.746490 
	C225.486526,69.886665 224.039200,69.085892 222.578278,69.060257 
	C215.355911,68.933502 208.129944,69.011726 200.905258,69.017670 
z"/>
<path fill="#7A7B7F" opacity="1.000000" stroke="none" 
	d="
M22.700603,70.445282 
	C26.404669,70.929359 29.821903,71.392601 34.140114,71.824203 
	C43.387390,71.685249 51.733696,71.577950 60.080002,71.470642 
	C65.380188,71.600479 70.680351,71.840714 75.980568,71.841858 
	C105.700554,71.848297 135.420563,71.797081 165.556091,72.041855 
	C165.936874,72.508064 165.902115,72.697968 165.545502,72.949165 
	C164.791885,73.079460 164.360107,73.148460 163.472961,73.127441 
	C152.348969,73.068619 141.680328,73.099808 130.749664,73.097321 
	C130.317703,73.109901 130.147766,73.156166 129.516388,73.123428 
	C106.707237,73.058395 84.359528,73.072365 61.545738,73.023506 
	C53.056870,73.000015 45.034081,73.039345 36.562218,73.027496 
	C33.404373,73.026566 30.695608,73.076813 27.602858,73.068497 
	C24.799070,73.041351 22.379269,73.072754 19.959469,73.104149 
	C20.777569,72.210915 21.595671,71.317680 22.700603,70.445282 
z"/>
<path fill="#7A7B7F" opacity="1.000000" stroke="none" 
	d="
M227.138107,71.162888 
	C230.082962,71.189903 233.027802,71.216919 236.841904,71.217850 
	C240.842682,71.179314 243.974197,71.166855 247.105728,71.154404 
	C248.764542,71.180046 250.423370,71.205681 252.971252,71.202499 
	C258.576202,71.175629 263.292114,71.177574 268.230774,71.411606 
	C269.612457,71.503960 270.771362,71.364220 271.930298,71.224472 
	C272.467865,71.732185 273.005432,72.239891 273.288513,72.895943 
	C259.322632,73.040894 245.611191,73.037506 230.968933,73.048630 
	C222.020966,73.087524 214.003830,73.111908 205.522095,73.082718 
	C199.101715,72.967537 193.145950,72.905922 187.152054,72.616150 
	C187.113937,72.387985 186.979294,71.945381 186.979294,71.945381 
	C190.679047,71.823982 194.378799,71.702583 198.959641,71.607613 
	C208.939850,71.476990 218.038986,71.319939 227.138107,71.162888 
z"/>
<path fill="#DDDDDF" opacity="1.000000" stroke="none" 
	d="
M19.956100,73.524231 
	C22.379269,73.072754 24.799070,73.041351 27.601799,73.423065 
	C26.675074,75.808380 25.365423,77.780571 23.793169,79.821106 
	C23.352446,79.921013 23.174324,79.952599 22.791656,79.725235 
	C21.735353,79.313942 20.883595,79.161606 20.031837,79.009262 
	C20.005470,77.320946 19.979101,75.632622 19.956100,73.524231 
z"/>
<path fill="#999A9E" opacity="1.000000" stroke="none" 
	d="
M271.852722,70.900909 
	C270.771362,71.364220 269.612457,71.503960 268.243713,71.141068 
	C268.082062,70.465340 268.130157,70.292244 268.178284,70.119156 
	C268.561096,70.115051 268.943939,70.110939 269.612305,70.085251 
	C270.523621,70.234894 271.149384,70.406120 271.852722,70.900909 
z"/>
<path fill="#D4D5D9" opacity="1.000000" stroke="none" 
	d="
M20.014160,79.339737 
	C20.883595,79.161606 21.735353,79.313942 22.783342,79.970978 
	C22.979574,80.475662 23.047916,80.962303 23.047916,80.962303 
	C22.291985,80.976410 21.536051,80.990517 20.402676,80.998962 
	C20.015648,80.552269 20.006065,80.111237 20.014160,79.339737 
z"/>
<path fill="#F0F0F0" opacity="1.000000" stroke="none" 
	d="
M274.991425,88.058075 
	C272.912964,89.031769 270.883911,90.706360 268.747437,90.856987 
	C259.824341,91.486053 250.866959,91.986618 241.925842,91.932106 
	C218.922836,91.791862 195.922577,91.198250 172.919586,91.063110 
	C163.479202,91.007645 153.950455,92.631027 144.607742,91.816986 
	C116.615349,89.377960 88.598839,90.051010 60.583954,90.052788 
	C50.475513,90.053429 40.368729,90.741325 30.257801,90.956436 
	C26.861221,91.028694 23.454157,90.608047 19.209869,90.364342 
	C19.536119,89.357033 19.895494,88.247452 21.082344,87.066589 
	C106.277046,86.998375 190.644272,87.001442 275.011505,87.004509 
	C275.011505,87.004509 274.997559,87.002411 274.996948,87.262970 
	C274.994720,87.701714 274.993073,87.879890 274.991425,88.058075 
z"/>
<path fill="#D0D0D0" opacity="1.000000" stroke="none" 
	d="
M274.851379,86.723625 
	C190.644272,87.001442 106.277046,86.998375 21.437233,87.000519 
	C21.931271,85.468704 22.897896,83.931664 24.302307,82.184502 
	C25.180567,81.956024 25.621037,81.937660 26.409882,82.143784 
	C29.835405,82.578949 32.912552,82.789627 36.198441,83.382034 
	C38.228626,83.844994 40.050030,83.996155 41.871529,83.997307 
	C99.597237,84.033844 157.322952,84.066643 215.048676,84.072762 
	C230.349854,84.074379 245.651031,83.987152 261.376709,84.021469 
	C264.890106,83.476952 267.978973,82.851685 271.067841,82.226410 
	C272.061981,82.652061 273.056152,83.077705 274.144470,83.543663 
	C273.345673,83.791718 272.617554,84.017807 271.661469,84.314697 
	C272.766541,85.090874 273.728882,85.766808 274.851379,86.723625 
z"/>
<path fill="#606166" opacity="1.000000" stroke="none" 
	d="
M271.391266,82.146469 
	C267.978973,82.851685 264.890106,83.476952 261.102661,83.706879 
	C252.706619,83.201302 245.005844,83.183533 237.314102,82.910927 
	C235.555786,82.848602 233.828613,81.907288 232.087112,81.370529 
	C233.696869,80.945251 235.302536,80.169518 236.917053,80.150589 
	C248.950943,80.009552 260.986603,80.018433 273.487000,79.992577 
	C273.206421,80.692078 272.460541,81.379303 271.391266,82.146469 
z"/>
<path fill="#999A9E" opacity="1.000000" stroke="none" 
	d="
M26.061508,81.919296 
	C25.621037,81.937660 25.180567,81.956024 24.411549,81.945038 
	C23.970186,81.597549 23.775711,81.341415 23.273746,81.054802 
	C23.047916,80.962303 22.979574,80.475662 22.987888,80.229919 
	C23.174324,79.952599 23.352446,79.921013 24.163769,79.882111 
	C25.544231,79.962425 26.291494,80.050064 26.912640,80.360168 
	C26.544851,81.028191 26.303181,81.473747 26.061508,81.919296 
z"/>
<path fill="#D0D0D0" opacity="1.000000" stroke="none" 
	d="
M275.155640,87.955994 
	C274.993073,87.879890 274.994720,87.701714 274.995941,87.256119 
	C275.167450,87.166718 275.357147,87.332275 275.497437,87.532471 
	C275.528290,87.576492 275.383636,87.743530 275.155640,87.955994 
z"/>
<path fill="#DDDDDF" opacity="1.000000" stroke="none" 
	d="
M227.039124,70.746490 
	C218.038986,71.319939 208.939850,71.476990 199.392029,71.462128 
	C199.403656,70.550903 199.863983,69.811600 200.614777,69.044983 
	C208.129944,69.011726 215.355911,68.933502 222.578278,69.060257 
	C224.039200,69.085892 225.486526,69.886665 227.039124,70.746490 
z"/>
<path fill="#D4D5D9" opacity="1.000000" stroke="none" 
	d="
M60.058571,71.210052 
	C51.733696,71.577950 43.387390,71.685249 34.591057,71.714310 
	C38.212486,70.783043 42.253490,69.481125 46.363899,69.202225 
	C50.542412,68.918709 54.789345,69.643570 59.458534,69.913925 
	C59.952888,70.250488 59.995014,70.599983 60.058571,71.210052 
z"/>
<path fill="#BBBCBE" opacity="1.000000" stroke="none" 
	d="
M186.695770,71.641846 
	C186.979294,71.945381 187.113937,72.387985 186.782471,72.647064 
	C185.959610,72.950157 185.468201,72.994179 184.739319,73.031967 
	C184.501862,73.025742 184.027130,73.043633 183.644836,73.029381 
	C182.497650,73.023460 181.732727,73.031799 180.626953,73.030090 
	C179.477417,73.331558 178.668716,73.643066 177.516586,73.941162 
	C176.490356,73.908157 175.807571,73.888557 174.804047,73.610542 
	C171.611328,73.197380 168.739349,73.042625 165.867371,72.887878 
	C165.902115,72.697968 165.936874,72.508064 166.030106,72.033218 
	C172.863144,71.611610 179.637680,71.474953 186.695770,71.641846 
z"/>
<path fill="#2E2D30" opacity="1.000000" stroke="none" 
	d="
M231.714539,81.251465 
	C233.828613,81.907288 235.555786,82.848602 237.314102,82.910927 
	C245.005844,83.183533 252.706619,83.201302 260.678162,83.626129 
	C245.651031,83.987152 230.349854,84.074379 215.048676,84.072762 
	C157.322952,84.066643 99.597237,84.033844 41.871529,83.997307 
	C40.050030,83.996155 38.228626,83.844994 36.578491,83.406540 
	C37.836445,82.457085 38.923092,81.864845 40.440918,81.220169 
	C45.234043,81.435165 49.595993,81.702591 54.413429,82.113480 
	C64.836197,82.074112 74.803474,81.891281 85.213318,81.524788 
	C88.182724,81.463730 90.709564,81.586327 93.537476,81.955460 
	C101.265930,81.984650 108.693298,81.767296 116.473518,81.299324 
	C119.191872,80.813126 121.557388,80.577553 124.197220,80.643707 
	C132.699066,81.142944 140.926590,81.340462 149.439804,81.806213 
	C153.850327,82.378784 157.987488,83.040413 162.096954,82.898743 
	C167.470688,82.713501 172.822556,81.893097 178.546082,81.114166 
	C180.872742,81.007027 182.837143,81.131653 185.028976,81.528603 
	C191.670746,81.877792 198.085083,81.954651 204.746307,82.236809 
	C205.396439,82.426750 205.799667,82.411392 206.438782,82.472794 
	C206.674683,82.549545 207.164261,82.578644 207.164261,82.578644 
	C207.164261,82.578644 207.623749,82.407425 208.093597,82.558838 
	C214.287521,82.759338 220.013809,82.904526 225.733795,82.773979 
	C226.837814,82.748779 227.917175,81.644257 229.007919,81.037628 
	C229.785934,81.069229 230.563965,81.100822 231.714539,81.251465 
z"/>
<path fill="#D0D0D0" opacity="1.000000" stroke="none" 
	d="
M205.986679,73.136284 
	C214.003830,73.111908 222.020966,73.087524 230.501801,73.110794 
	C230.052139,74.127235 229.214661,75.185272 228.206497,76.042603 
	C226.902771,77.151260 225.462769,78.099663 223.563156,79.516388 
	C217.729019,80.200737 212.413177,80.485764 206.858398,80.698166 
	C206.619492,80.625542 206.127243,80.543503 205.842407,80.349014 
	C204.867371,80.100243 204.177170,80.045959 203.182526,79.898117 
	C202.949112,78.915535 202.757690,77.884064 203.146561,77.167519 
	C203.925293,75.732613 205.021530,74.470016 205.986679,73.136284 
z"/>
<path fill="#7A7B7F" opacity="1.000000" stroke="none" 
	d="
M207.097321,80.770798 
	C212.413177,80.485764 217.729019,80.200737 223.505371,79.856529 
	C225.507523,79.995644 227.049164,80.193939 228.799362,80.714928 
	C227.917175,81.644257 226.837814,82.748779 225.733795,82.773979 
	C220.013809,82.904526 214.287521,82.759338 208.034958,82.529739 
	C207.506485,82.349213 207.256973,82.242416 207.189667,81.877487 
	C207.114029,81.265297 207.105667,81.018044 207.097321,80.770798 
z"/>
<path fill="#D0D0D0" opacity="1.000000" stroke="none" 
	d="
M267.874695,69.804733 
	C268.130157,70.292244 268.082062,70.465340 268.020966,70.908974 
	C263.292114,71.177574 258.576202,71.175629 253.384369,71.162857 
	C253.669617,70.448311 254.422150,69.151222 255.193466,69.139954 
	C259.316772,69.079720 263.444733,69.340515 267.874695,69.804733 
z"/>
<path fill="#D4D5D9" opacity="1.000000" stroke="none" 
	d="
M247.014069,70.751831 
	C243.974197,71.166855 240.842682,71.179314 237.281097,71.173309 
	C237.039642,70.852852 237.228241,70.550865 237.886078,70.028244 
	C238.561569,69.551003 238.767822,69.294380 238.974075,69.037758 
	C241.623520,69.474922 244.272980,69.912086 247.014069,70.751831 
z"/>
<path fill="#DDDDDF" opacity="1.000000" stroke="none" 
	d="
M238.743271,69.130333 
	C238.767822,69.294380 238.561569,69.551003 238.115479,69.891373 
	C238.007019,69.655853 238.219284,69.405113 238.743271,69.130333 
z"/>
<path fill="#E6E7E9" opacity="1.000000" stroke="none" 
	d="
M123.922897,80.341980 
	C121.557388,80.577553 119.191872,80.813126 116.178894,80.866074 
	C108.626511,80.557518 101.721748,80.400558 94.816391,80.367462 
	C94.291885,80.364952 93.763161,81.241165 93.236404,81.708923 
	C90.709564,81.586327 88.182724,81.463730 85.151901,81.084023 
	C78.763992,80.563416 72.880058,80.299911 66.993713,79.668190 
	C65.331474,77.228752 63.671650,75.157539 62.011822,73.086327 
	C84.359528,73.072365 106.707237,73.058395 129.516205,73.303642 
	C129.977448,73.562859 129.972076,73.924828 129.942825,74.196533 
	C129.916183,74.650414 129.918808,74.832573 129.568726,75.078110 
	C127.833359,77.263504 123.367455,76.247353 123.922897,80.341980 
z"/>
<path fill="#DDDDDF" opacity="1.000000" stroke="none" 
	d="
M124.197220,80.643700 
	C123.367455,76.247353 127.833359,77.263504 129.800552,75.116806 
	C130.385101,75.092125 130.853882,75.115501 131.155380,75.424767 
	C141.202393,75.822128 150.947998,75.944580 160.693237,75.920502 
	C161.338593,75.918907 161.981186,74.801514 162.881119,74.093018 
	C163.400894,73.727776 163.664612,73.472626 163.928345,73.217468 
	C164.360107,73.148460 164.791885,73.079460 165.545502,72.949165 
	C168.739349,73.042625 171.611328,73.197380 174.634521,73.917694 
	C172.641647,75.828026 171.797409,77.592003 172.538605,80.100998 
	C165.849670,80.207558 159.621506,80.152954 153.398621,80.309586 
	C151.974380,80.345436 150.568466,81.109215 149.154114,81.537971 
	C140.926590,81.340462 132.699066,81.142944 124.197220,80.643700 
z"/>
<path fill="#DDDDDF" opacity="1.000000" stroke="none" 
	d="
M61.545738,73.023506 
	C63.671650,75.157539 65.331474,77.228752 66.541290,79.772980 
	C63.647938,80.264893 61.180984,80.085083 58.769447,80.371635 
	C57.125515,80.566978 55.559048,81.414246 53.957943,81.970016 
	C49.595993,81.702591 45.234043,81.435165 40.430138,80.910233 
	C39.662209,80.404938 39.336227,80.157150 39.008545,79.520935 
	C38.341656,77.114563 37.676476,75.096619 37.011295,73.078674 
	C45.034081,73.039345 53.056870,73.000015 61.545738,73.023506 
z"/>
<path fill="#D4D5D9" opacity="1.000000" stroke="none" 
	d="
M36.562218,73.027496 
	C37.676476,75.096619 38.341656,77.114563 38.552505,79.598877 
	C34.411701,80.089401 30.725229,80.113548 27.038755,80.137695 
	C26.291494,80.050064 25.544231,79.962425 24.426373,79.813782 
	C25.365423,77.780571 26.675074,75.808380 27.985785,73.481613 
	C30.695608,73.076813 33.404373,73.026566 36.562218,73.027496 
M36.414330,78.482216 
	C36.414330,78.482216 36.523312,78.417984 36.414330,78.482216 
z"/>
<path fill="#E3E4E5" opacity="1.000000" stroke="none" 
	d="
M163.472961,73.127449 
	C163.664612,73.472626 163.400894,73.727776 162.441956,74.139076 
	C151.499786,74.275482 141.252853,74.255737 131.047867,74.124168 
	C131.089813,74.012352 131.050797,73.776695 131.037277,73.615494 
	C131.023758,73.454292 131.011703,73.130997 131.011703,73.130997 
	C141.680328,73.099808 152.348969,73.068619 163.472961,73.127449 
z"/>
<path fill="#DDDDDF" opacity="1.000000" stroke="none" 
	d="
M130.749664,73.097321 
	C131.011703,73.130997 131.023758,73.454292 130.769043,73.664062 
	C130.333588,73.890831 130.152832,73.907829 129.972076,73.924828 
	C129.972076,73.924828 129.977448,73.562859 129.977631,73.382645 
	C130.147766,73.156166 130.317703,73.109901 130.749664,73.097321 
z"/>
<path fill="#D4D5D9" opacity="1.000000" stroke="none" 
	d="
M173.001282,80.016495 
	C171.797409,77.592003 172.641647,75.828026 174.955261,74.176109 
	C175.807571,73.888557 176.490356,73.908157 177.867935,73.955704 
	C179.364426,73.669144 180.166122,73.354637 180.967819,73.040131 
	C181.732727,73.031799 182.497650,73.023460 183.728333,73.187866 
	C184.455002,73.253136 184.715897,73.145660 184.976791,73.038193 
	C185.468201,72.994179 185.959610,72.950157 186.820587,72.875229 
	C193.145950,72.905922 199.101715,72.967537 205.522095,73.082718 
	C205.021530,74.470016 203.925293,75.732613 203.146561,77.167519 
	C202.757690,77.884064 202.949112,78.915535 203.220551,80.003632 
	C203.563034,80.202698 203.601837,80.422783 203.221664,80.482010 
	C196.828171,80.779587 190.814865,81.017929 184.801544,81.256271 
	C182.837143,81.131653 180.872742,81.007027 178.235260,80.755363 
	C176.041885,80.424377 174.521591,80.220436 173.001282,80.016495 
z"/>
<path fill="#7A7B7F" opacity="1.000000" stroke="none" 
	d="
M26.912640,80.360168 
	C30.725229,80.113548 34.411701,80.089401 38.554214,79.987305 
	C39.336227,80.157150 39.662209,80.404938 39.998962,80.962669 
	C38.923092,81.864845 37.836445,82.457085 36.369751,83.024818 
	C32.912552,82.789627 29.835405,82.578949 26.409882,82.143784 
	C26.303181,81.473747 26.544851,81.028191 26.912640,80.360168 
z"/>
<path fill="#DDDDDF" opacity="1.000000" stroke="none" 
	d="
M180.626953,73.030090 
	C180.166122,73.354637 179.364426,73.669144 178.211380,73.969116 
	C178.668716,73.643066 179.477417,73.331558 180.626953,73.030090 
z"/>
<path fill="#DDDDDF" opacity="1.000000" stroke="none" 
	d="
M184.739319,73.031967 
	C184.715897,73.145660 184.455002,73.253136 184.110626,73.202118 
	C184.027130,73.043633 184.501862,73.025742 184.739319,73.031967 
z"/>
<path fill="#606166" opacity="1.000000" stroke="none" 
	d="
M172.538605,80.100998 
	C174.521591,80.220436 176.041885,80.424377 177.873016,80.987137 
	C172.822556,81.893097 167.470688,82.713501 162.096954,82.898743 
	C157.987488,83.040413 153.850327,82.378784 149.439804,81.806213 
	C150.568466,81.109215 151.974380,80.345436 153.398621,80.309586 
	C159.621506,80.152954 165.849670,80.207558 172.538605,80.100998 
z"/>
<path fill="#606166" opacity="1.000000" stroke="none" 
	d="
M54.413429,82.113480 
	C55.559048,81.414246 57.125515,80.566978 58.769447,80.371635 
	C61.180984,80.085083 63.647938,80.264893 66.543701,80.141205 
	C72.880058,80.299911 78.763992,80.563416 84.709343,81.267677 
	C74.803474,81.891281 64.836197,82.074112 54.413429,82.113480 
z"/>
<path fill="#606166" opacity="1.000000" stroke="none" 
	d="
M93.537476,81.955460 
	C93.763161,81.241165 94.291885,80.364952 94.816391,80.367462 
	C101.721748,80.400558 108.626511,80.557518 115.826050,81.116692 
	C108.693298,81.767296 101.265930,81.984650 93.537476,81.955460 
z"/>
<path fill="#606166" opacity="1.000000" stroke="none" 
	d="
M185.028976,81.528603 
	C190.814865,81.017929 196.828171,80.779587 203.628357,80.672279 
	C204.985901,80.716713 205.556564,80.630104 206.127243,80.543503 
	C206.127243,80.543503 206.619492,80.625542 206.858398,80.698166 
	C207.105667,81.018044 207.114029,81.265297 206.931595,81.887749 
	C206.571793,82.278770 206.402756,82.294594 205.805161,82.209518 
	C205.084213,82.082924 204.791824,82.057220 204.499420,82.031509 
	C198.085083,81.954651 191.670746,81.877792 185.028976,81.528603 
z"/>
<path fill="#999A9E" opacity="1.000000" stroke="none" 
	d="
M206.233719,82.310417 
	C206.402756,82.294594 206.571793,82.278770 206.998901,82.252686 
	C207.256973,82.242416 207.506485,82.349213 207.565125,82.378319 
	C207.623749,82.407425 207.164261,82.578644 207.164261,82.578644 
	C207.164261,82.578644 206.674683,82.549545 206.439865,82.450500 
	C206.205048,82.351463 206.233719,82.310417 206.233719,82.310417 
z"/>
<path fill="#7A7B7F" opacity="1.000000" stroke="none" 
	d="
M205.805161,82.209518 
	C206.233719,82.310417 206.205048,82.351463 206.203979,82.373749 
	C205.799667,82.411392 205.396439,82.426750 204.746307,82.236809 
	C204.791824,82.057220 205.084213,82.082924 205.805161,82.209518 
z"/>
<path fill="#999A9E" opacity="1.000000" stroke="none" 
	d="
M205.842407,80.349014 
	C205.556564,80.630104 204.985901,80.716713 204.008530,80.613052 
	C203.601837,80.422783 203.563034,80.202698 203.524994,80.097183 
	C204.177170,80.045959 204.867371,80.100243 205.842407,80.349014 
z"/>
<path fill="#999A9E" opacity="1.000000" stroke="none" 
	d="
M129.942825,74.196533 
	C130.152832,73.907829 130.333588,73.890831 130.782562,73.825272 
	C131.050797,73.776695 131.089813,74.012352 131.049988,74.350937 
	C131.010147,74.689529 130.853882,75.115501 130.853882,75.115501 
	C130.853882,75.115501 130.385101,75.092125 130.153259,75.053436 
	C129.918808,74.832573 129.916183,74.650414 129.942825,74.196533 
z"/>
<path fill="#606166" opacity="1.000000" stroke="none" 
	d="
M131.155380,75.424767 
	C130.853882,75.115501 131.010147,74.689529 131.008026,74.462753 
	C141.252853,74.255737 151.499786,74.275482 162.185883,74.249168 
	C161.981186,74.801514 161.338593,75.918907 160.693237,75.920502 
	C150.947998,75.944580 141.202393,75.822128 131.155380,75.424767 
z"/>
<path fill="#DDDDDF" opacity="1.000000" stroke="none" 
	d="
M36.468819,78.450104 
	C36.523312,78.417984 36.414330,78.482216 36.468819,78.450104 
z"/>
</svg>